GentiumPlus-Regular2.ufo
<glyph name="LtnSmYDiaer" format="1">
  <advance width="1010"/>
  <unicode hex="00FF"/>
  <outline>
    <component base="LtnSmY"/>
    <component base="CombDiaer" xOffset="1045"/>
    <contour>
      <point x="770" y="-100" type="move" name="L"/>
    </contour>
    <contour>
      <point x="1044" y="900" type="move" name="R"/>
    </contour>
    <contour>
      <point x="530" y="1410" type="move" name="U"/>
    </contour>
  </outline>
</glyph>
<glyph name="LtnCapNCaron" format="1">
  <advance width="1329"/>
  <unicode hex="0147"/>
  <outline>
    <component base="LtnCapN"/>
    <component base="CombCaron.LP" xOffset="1179" yOffset="320"/>
    <contour>
      <point x="1047" y="0" type="move" name="H"/>
    </contour>
    <contour>
      <point x="665" y="-100" type="move" name="L"/>
    </contour>
    <contour>
      <point x="665" y="1690" type="move" name="U"/>
    </contour>
  </outline>
</glyph>
<glyph name="LtnSmYCircum" format="1">
  <advance width="1010"/>
  <unicode hex="0177"/>
  <outline>
    <component base="LtnSmY"/>
    <component base="CombCircum" xOffset="1044"/>
    <contour>
      <point x="770" y="-100" type="move" name="L"/>
    </contour>
    <contour>
      <point x="1044" y="900" type="move" name="R"/>
    </contour>
    <contour>
      <point x="530" y="1500" type="move" name="U"/>
    </contour>
  </outline>
</glyph>
<glyph name="LtnSmOOgonekMacron" format="1">
  <advance width="1030"/>
  <unicode hex="01ED"/>
  <outline>
    <component base="LtnSmOOgonek"/>
    <component base="CombMacron" xOffset="1060"/>
    <contour>
      <point x="535" y="0" type="move" name="H"/>
    </contour>
    <contour>
      <point x="535" y="-600" type="move" name="L"/>
    </contour>
    <contour>
      <point x="1044" y="900" type="move" name="R"/>
    </contour>
    <contour>
      <point x="535" y="1410" type="move" name="U"/>
    </contour>
  </outline>
</glyph>
<glyph name="LtnSmEzhCaron" format="1">
  <advance width="920"/>
  <unicode hex="01EF"/>
  <outline>
    <component base="LtnSmEzh"/>
    <component base="CombCaron" xOffset="974"/>
    <contour>
      <point x="424" y="-600" type="move" name="L"/>
    </contour>
    <contour>
      <point x="460" y="1450" type="move" name="U"/>
    </contour>
  </outline>
</glyph>
<glyph name="ModMiddleDblGraveAccent" format="1">
  <advance width="748"/>
  <unicode hex="02F5"/>
  <outline>
    <contour>
      <point x="371" y="874" type="line"/>
      <point x="631" y="498" type="line"/>
      <point x="653" y="503"/>
      <point x="662" y="509"/>
      <point x="688" y="525" type="curve"/>
      <point x="512" y="940" type="line"/>
      <point x="479" y="936"/>
      <point x="420" y="925"/>
      <point x="393" y="915" type="curve"/>
    </contour>
    <contour>
      <point x="80" y="874" type="line"/>
      <point x="340" y="498" type="line"/>
      <point x="365" y="503"/>
      <point x="373" y="509"/>
      <point x="397" y="525" type="curve"/>
      <point x="221" y="940" type="line"/>
      <point x="188" y="936"/>
      <point x="131" y="925"/>
      <point x="102" y="915" type="curve"/>
    </contour>
    <contour>
      <point x="367" y="1050" type="move" name="U"/>
    </contour>
  </outline>
</glyph>
<glyph name="CombVertLineAbv" format="1">
  <advance width="0"/>
  <unicode hex="030D"/>
  <outline>
    <contour>
      <point x="-497" y="1078"/>
      <point x="-470" y="1091" type="curve"/>
      <point x="-470" y="1456" type="line"/>
      <point x="-497" y="1480" type="line"/>
      <point x="-523" y="1474"/>
      <point x="-557" y="1460"/>
      <point x="-580" y="1450" type="curve"/>
      <point x="-580" y="1082" type="line"/>
      <point x="-555" y="1060" type="line"/>
      <point x="-529" y="1066"/>
    </contour>
    <contour>
      <point x="-525" y="1370" type="move" name="U"/>
    </contour>
    <contour>
      <point x="-525" y="1050" type="move" name="_U"/>
    </contour>
  </outline>
</glyph>
<glyph name="CyCapShortI" format="1">
  <advance width="1360"/>
  <unicode hex="0419"/>
  <outline>
    <component base="CyCapI"/>
    <component base="CombBreve.CyShortMrkAlt.UCHt" xOffset="1267"/>
    <contour>
      <point x="670" y="-100" type="move" name="L"/>
    </contour>
    <contour>
      <point x="670" y="1805" type="move" name="U"/>
    </contour>
  </outline>
</glyph>
<glyph name="CombXXBlw" format="1">
  <advance width="0"/>
  <unicode hex="1AB5"/>
  <outline>
    <component base="CombXBlw"/>
    <contour>
      <point x="-515" y="-600" type="move" name="L"/>
    </contour>
    <contour>
      <point x="-515" y="-100" type="move" name="_L"/>
    </contour>
  </outline>
</glyph>
<glyph name="CombGrave_Acute_Grave" format="1">
  <advance width="0"/>
  <unicode hex="1DC8"/>
  <outline>
    <contour>
      <point x="-579" y="1067" type="line"/>
      <point x="-430" y="1245" type="line"/>
      <point x="-208" y="1067" type="line"/>
      <point x="-190" y="1078"/>
      <point x="-186" y="1085"/>
      <point x="-171" y="1109" type="curve"/>
      <point x="-380" y="1385" type="line"/>
      <point x="-476" y="1385" type="line"/>
      <point x="-625" y="1207" type="line"/>
      <point x="-847" y="1385" type="line"/>
      <point x="-865" y="1375"/>
      <point x="-869" y="1367"/>
      <point x="-884" y="1343" type="curve"/>
      <point x="-675" y="1067" type="line"/>
    </contour>
    <contour>
      <point x="-514" y="1050" type="move" name="_U"/>
    </contour>
  </outline>
</glyph>
<glyph name="LtnSmECedillaBreve" format="1">
  <advance width="946"/>
  <unicode hex="1E1D"/>
  <outline>
    <component base="LtnSmE"/>
    <component base="CombBreve" xOffset="1025"/>
    <component base="CombCedilla" xOffset="1013"/>
    <contour>
      <point x="500" y="-600" type="move" name="L"/>
    </contour>
    <contour>
      <point x="558" y="0" type="move" name="O"/>
    </contour>
    <contour>
      <point x="1020" y="900" type="move" name="R"/>
    </contour>
    <contour>
      <point x="510" y="1370" type="move" name="U"/>
    </contour>
  </outline>
</glyph>
<glyph name="LtnSmLDotBlwMacron" format="1">
  <advance width="555"/>
  <unicode hex="1E39"/>
  <outline>
    <component base="LtnSmL"/>
    <component base="CombDotBlw" xOffset="800"/>
    <component base="CombMacron.LP" xOffset="810" yOffset="640"/>
    <contour>
      <point x="285" y="0" type="move" name="H"/>
    </contour>
    <contour>
      <point x="285" y="-600" type="move" name="L"/>
    </contour>
    <contour>
      <point x="535" y="900" type="move" name="R"/>
    </contour>
    <contour>
      <point x="285" y="2010" type="move" name="U"/>
    </contour>
  </outline>
</glyph>
<glyph name="LtnSmNLineBlw" format="1">
  <advance width="1130"/>
  <unicode hex="1E49"/>
  <outline>
    <component base="LtnSmN"/>
    <component base="CombMacronBlw" xOffset="1092"/>
    <contour>
      <point x="885" y="0" type="move" name="H"/>
    </contour>
    <contour>
      <point x="577" y="-600" type="move" name="L"/>
    </contour>
    <contour>
      <point x="577" y="1050" type="move" name="U"/>
    </contour>
  </outline>
</glyph>
<glyph name="LtnSmZCircum" format="1">
  <advance width="869"/>
  <unicode hex="1E91"/>
  <outline>
    <component base="LtnSmZ"/>
    <component base="CombCircum" xOffset="994"/>
    <contour>
      <point x="452" y="0" type="move" name="H"/>
    </contour>
    <contour>
      <point x="452" y="-100" type="move" name="L"/>
    </contour>
    <contour>
      <point x="480" y="1500" type="move" name="U"/>
    </contour>
  </outline>
</glyph>
<glyph name="LtnSmTDiaer" format="1">
  <advance width="705"/>
  <unicode hex="1E97"/>
  <outline>
    <component base="LtnSmT"/>
    <component base="CombDiaer" xOffset="863" yOffset="270"/>
    <contour>
      <point x="348" y="0" type="move" name="H"/>
    </contour>
    <contour>
      <point x="348" y="-100" type="move" name="L"/>
    </contour>
    <contour>
      <point x="500" y="900" type="move" name="R"/>
    </contour>
    <contour>
      <point x="348" y="1680" type="move" name="U"/>
    </contour>
  </outline>
</glyph>
<glyph name="LtnSmACircumTilde" format="1">
  <advance width="940"/>
  <unicode hex="1EAB"/>
  <outline>
    <component base="LtnSmA"/>
    <component base="CombCircum" xOffset="994"/>
    <component base="CombTilde" xOffset="995" yOffset="450"/>
    <contour>
      <point x="446" y="0" type="move" name="H"/>
    </contour>
    <contour>
      <point x="460" y="-100" type="move" name="L"/>
    </contour>
    <contour>
      <point x="715" y="0" type="move" name="O"/>
    </contour>
    <contour>
      <point x="940" y="900" type="move" name="R"/>
    </contour>
    <contour>
      <point x="480" y="1860" type="move" name="U"/>
    </contour>
  </outline>
</glyph>
<glyph name="SmRomNumFiveHundred" format="1">
  <advance width="1065"/>
  <unicode hex="217E"/>
  <outline>
    <component base="LtnSmD"/>
    <contour>
      <point x="550" y="1370" type="move" name="U"/>
    </contour>
  </outline>
</glyph>
<glyph name="LtnSmChi" format="1">
  <advance width="1030"/>
  <unicode hex="AB53"/>
  <outline>
    <component base="LtnSmX"/>
    <contour>
      <point x="800" y="0" type="move" name="H"/>
    </contour>
    <contour>
      <point x="518" y="-100" type="move" name="L"/>
    </contour>
    <contour>
      <point x="518" y="1050" type="move" name="U"/>
    </contour>
  </outline>
</glyph>
<glyph name="CombMacron.LP" format="1">
  <advance width="0"/>
  <outline>
    <contour>
      <point x="-183" y="1212"/>
      <point x="-177" y="1241" type="curve"/>
      <point x="-199" y="1265" type="line"/>
      <point x="-812" y="1265" type="line"/>
      <point x="-825" y="1239"/>
      <point x="-847" y="1189"/>
      <point x="-853" y="1160" type="curve"/>
      <point x="-831" y="1135" type="line"/>
      <point x="-216" y="1135" type="line"/>
      <point x="-206" y="1160"/>
    </contour>
    <contour>
      <point x="-525" y="1370" type="move" name="U"/>
    </contour>
    <contour>
      <point x="-525" y="1050" type="move" name="_U"/>
    </contour>
  </outline>
</glyph>
<glyph name="CySmYi.sc" format="1">
  <advance width="573"/>
  <outline>
    <component base="LtnSmI.sc"/>
    <component base="CombDiaer" xOffset="792" yOffset="95"/>
    <contour>
      <point x="277" y="7" type="move" name="H"/>
    </contour>
    <contour>
      <point x="277" y="-76" type="move" name="L"/>
    </contour>
    <contour>
      <point x="324" y="7" type="move" name="O"/>
    </contour>
    <contour>
      <point x="545" y="920" type="move" name="R"/>
    </contour>
    <contour>
      <point x="277" y="1505" type="move" name="U"/>
    </contour>
  </outline>
</glyph>
<glyph name="LtnCapLCaron.Caron" format="1">
  <advance width="975"/>
  <outline>
    <component base="LtnCapL"/>
    <component base="CombCaron.LP" xOffset="981" yOffset="320"/>
    <contour>
      <point x="497" y="0" type="move" name="H"/>
    </contour>
    <contour>
      <point x="497" y="-100" type="move" name="L"/>
    </contour>
    <contour>
      <point x="750" y="900" type="move" name="R"/>
    </contour>
    <contour>
      <point x="467" y="1690" type="move" name="U"/>
    </contour>
  </outline>
</glyph>
<glyph name="LtnLigSmFSmI.SItal.sc" format="1">
  <advance width="1493"/>
  <outline>
    <component base="LtnSmF.sc"/>
    <component base="LtnSmI.sc" xOffset="920"/>
    <contour>
      <point x="1197" y="7" type="move" name="H"/>
    </contour>
    <contour>
      <point x="1197" y="-76" type="move" name="L"/>
    </contour>
    <contour>
      <point x="1244" y="7" type="move" name="O"/>
    </contour>
    <contour>
      <point x="1465" y="920" type="move" name="R"/>
    </contour>
    <contour>
      <point x="1197" y="1145" type="move" name="U"/>
    </contour>
  </outline>
</glyph>
<glyph name="LtnSmA.SngStory.sc" format="1">
  <advance width="1146"/>
  <outline>
    <component base="LtnSmA.sc"/>
    <contour>
      <point x="563" y="0" type="move" name="H"/>
    </contour>
    <contour>
      <point x="563" y="-76" type="move" name="L"/>
    </contour>
    <contour>
      <point x="902" y="7" type="move" name="O"/>
    </contour>
    <contour>
      <point x="563" y="1145" type="move" name="U"/>
    </contour>
  </outline>
</glyph>
<glyph name="LtnSmACircumAcute.LP" format="1">
  <advance width="940"/>
  <outline>
    <component base="LtnSmA"/>
    <component base="CombCircum.LP" xOffset="994"/>
    <component base="CombAcute.LP" xOffset="1023" yOffset="400"/>
    <contour>
      <point x="446" y="0" type="move" name="H"/>
    </contour>
    <contour>
      <point x="460" y="-100" type="move" name="L"/>
    </contour>
    <contour>
      <point x="715" y="0" type="move" name="O"/>
    </contour>
    <contour>
      <point x="940" y="900" type="move" name="R"/>
    </contour>
    <contour>
      <point x="480" y="1770" type="move" name="U"/>
    </contour>
  </outline>
</glyph>
<glyph name="LtnSmACircumGrave.SngStory.LP" format="1">
  <advance width="1023"/>
  <outline>
    <component base="LtnSmAlpha"/>
    <component base="CombCircum.LP" xOffset="1058"/>
    <component base="CombGrave.LP" xOffset="977" yOffset="400"/>
    <contour>
      <point x="532" y="0" type="move" name="H"/>
    </contour>
    <contour>
      <point x="544" y="-100" type="move" name="L"/>
    </contour>
    <contour>
      <point x="790" y="0" type="move" name="O"/>
    </contour>
    <contour>
      <point x="1023" y="900" type="move" name="R"/>
    </contour>
    <contour>
      <point x="544" y="1770" type="move" name="U"/>
    </contour>
  </outline>
</glyph>
<glyph name="LtnSmARingBlw.SngStory.sc" format="1">
  <advance width="1146"/>
  <outline>
    <component base="LtnSmA.sc"/>
    <component base="CombRingBlw" xOffset="1078" yOffset="24"/>
    <contour>
      <point x="563" y="0" type="move" name="H"/>
    </contour>
    <contour>
      <point x="563" y="-626" type="move" name="L"/>
    </contour>
    <contour>
      <point x="902" y="7" type="move" name="O"/>
    </contour>
    <contour>
      <point x="563" y="1145" type="move" name="U"/>
    </contour>
  </outline>
</glyph>
<glyph name="LtnSmAeMacron.sc" format="1">
  <advance width="1499"/>
  <outline>
    <component base="LtnSmAe.sc"/>
    <component base="CombMacron" xOffset="1394" yOffset="95"/>
    <contour>
      <point x="803" y="-76" type="move" name="L"/>
    </contour>
    <contour>
      <point x="869" y="1505" type="move" name="U"/>
    </contour>
  </outline>
</glyph>
<glyph name="LtnSmBDotAbv.LP" format="1">
  <advance width="1040"/>
  <outline>
    <component base="LtnSmB"/>
    <component base="CombDotAbv.LP" xOffset="1105"/>
    <contour>
      <point x="479" y="-100" type="move" name="L"/>
    </contour>
    <contour>
      <point x="590" y="1370" type="move" name="U"/>
    </contour>
  </outline>
</glyph>
<glyph name="LtnSmBDotBlw.sc" format="1">
  <advance width="1058"/>
  <outline>
    <component base="LtnSmB.sc"/>
    <component base="CombDotBlw" xOffset="1011" yOffset="24"/>
    <contour>
      <point x="496" y="-576" type="move" name="L"/>
    </contour>
    <contour>
      <point x="496" y="1145" type="move" name="U"/>
    </contour>
  </outline>
</glyph>
<glyph name="LtnSmCDotAbv.sc" format="1">
  <advance width="1032"/>
  <outline>
    <component base="LtnSmC.sc"/>
    <component base="CombDotAbv" xOffset="1092" yOffset="95"/>
    <contour>
      <point x="549" y="7" type="move" name="H"/>
    </contour>
    <contour>
      <point x="577" y="-76" type="move" name="L"/>
    </contour>
    <contour>
      <point x="577" y="1505" type="move" name="U"/>
    </contour>
  </outline>
</glyph>
<glyph name="LtnSmDTopbar.sc" format="1">
  <advance width="1058"/>
  <outline>
    <contour>
      <point x="101" y="460"/>
      <point x="101" y="289" type="curve" smooth="yes"/>
      <point x="101" y="83"/>
      <point x="275" y="-12"/>
      <point x="528" y="-12" type="curve" smooth="yes"/>
      <point x="636" y="-12"/>
      <point x="933" y="0"/>
      <point x="933" y="0" type="curve"/>
      <point x="935" y="12" type="line"/>
      <point x="726" y="95" type="line"/>
      <point x="688" y="76"/>
      <point x="603" y="71"/>
      <point x="548" y="71" type="curve" smooth="yes"/>
      <point x="375" y="71"/>
      <point x="264" y="176"/>
      <point x="264" y="310" type="curve" smooth="yes"/>
      <point x="264" y="426"/>
      <point x="354" y="530"/>
      <point x="564" y="530" type="curve" smooth="yes"/>
      <point x="634" y="530"/>
      <point x="690" y="521"/>
      <point x="741" y="514" type="curve"/>
      <point x="772" y="510" type="line"/>
      <point x="783" y="587" type="line"/>
      <point x="714" y="604"/>
      <point x="622" y="618"/>
      <point x="528" y="618" type="curve" smooth="yes"/>
      <point x="255" y="618"/>
    </contour>
    <contour>
      <point x="529" y="0" type="line"/>
      <point x="1005" y="0" type="line"/>
      <point x="1005" y="49" type="line"/>
      <point x="922" y="64"/>
      <point x="870" y="81"/>
      <point x="870" y="92" type="curve"/>
      <point x="870" y="948" type="line"/>
      <point x="870" y="958"/>
      <point x="916" y="976"/>
      <point x="1005" y="992" type="curve"/>
      <point x="1005" y="1041" type="line"/>
      <point x="576" y="1041" type="line"/>
      <point x="576" y="992" type="line"/>
      <point x="599" y="988"/>
      <point x="626" y="983"/>
      <point x="643" y="980" type="curve" smooth="yes"/>
      <point x="684" y="974"/>
      <point x="710" y="969"/>
      <point x="710" y="965" type="curve"/>
      <point x="710" y="92" type="line"/>
      <point x="710" y="81"/>
      <point x="677" y="71"/>
      <point x="529" y="49" type="curve"/>
    </contour>
    <contour>
      <point x="341" y="953" type="curve"/>
      <point x="827" y="953" type="line"/>
      <point x="795" y="1041" type="line"/>
      <point x="207" y="1041" type="line"/>
      <point x="195" y="982"/>
      <point x="175" y="838"/>
      <point x="176" y="771" type="curve"/>
      <point x="226" y="751" type="line"/>
      <point x="248" y="803" type="line"/>
      <point x="289" y="899"/>
      <point x="311" y="953"/>
    </contour>
    <contour>
      <point x="557" y="-76" type="move" name="L"/>
    </contour>
    <contour>
      <point x="557" y="1145" type="move" name="U"/>
    </contour>
  </outline>
</glyph>
<glyph name="LtnSmFDotAbv.sc" format="1">
  <advance width="920"/>
  <outline>
    <component base="LtnSmF.sc"/>
    <component base="CombDotAbv" xOffset="960" yOffset="95"/>
    <contour>
      <point x="445" y="-76" type="move" name="L"/>
    </contour>
    <contour>
      <point x="445" y="1505" type="move" name="U"/>
    </contour>
  </outline>
</glyph>
<glyph name="LtnSmIDblGrave.SItal" format="1">
  <advance width="555"/>
  <outline>
    <component base="LtnSmDotlessI.SItal"/>
    <component base="CombDblGrave" xOffset="825"/>
    <contour>
      <point x="285" y="0" type="move" name="H"/>
    </contour>
    <contour>
      <point x="285" y="-100" type="move" name="L"/>
    </contour>
    <contour>
      <point x="335" y="0" type="move" name="O"/>
    </contour>
    <contour>
      <point x="555" y="900" type="move" name="R"/>
    </contour>
    <contour>
      <point x="285" y="1533" type="move" name="U"/>
    </contour>
  </outline>
</glyph>
<glyph name="LtnSmIOgonek.LP" format="1">
  <advance width="555"/>
  <outline>
    <component base="LtnSmI.LP"/>
    <component base="CombOgonek" xOffset="799"/>
    <contour>
      <point x="285" y="-600" type="move" name="L"/>
    </contour>
    <contour>
      <point x="335" y="0" type="move" name="O"/>
    </contour>
    <contour>
      <point x="555" y="900" type="move" name="R"/>
    </contour>
    <contour>
      <point x="285" y="1050" type="move" name="U"/>
    </contour>
  </outline>
</glyph>
<glyph name="LtnSmIOgonek.sc" format="1">
  <advance width="573"/>
  <outline>
    <component base="LtnSmI.sc"/>
    <component base="CombOgonek" xOffset="788" yOffset="7"/>
    <contour>
      <point x="277" y="7" type="move" name="H"/>
    </contour>
    <contour>
      <point x="274" y="-593" type="move" name="L"/>
    </contour>
    <contour>
      <point x="545" y="920" type="move" name="R"/>
    </contour>
    <contour>
      <point x="277" y="1145" type="move" name="U"/>
    </contour>
  </outline>
</glyph>
<glyph name="LtnSmNDotAbv.LP" format="1">
  <advance width="1130"/>
  <outline>
    <component base="LtnSmN"/>
    <component base="CombDotAbv.LP" xOffset="1092"/>
    <contour>
      <point x="885" y="0" type="move" name="H"/>
    </contour>
    <contour>
      <point x="577" y="-100" type="move" name="L"/>
    </contour>
    <contour>
      <point x="577" y="1370" type="move" name="U"/>
    </contour>
  </outline>
</glyph>
<glyph name="LtnSmNGrave.LP" format="1">
  <advance width="1130"/>
  <outline>
    <component base="LtnSmN"/>
    <component base="CombGrave.LP" xOffset="1010"/>
    <contour>
      <point x="885" y="0" type="move" name="H"/>
    </contour>
    <contour>
      <point x="577" y="-100" type="move" name="L"/>
    </contour>
    <contour>
      <point x="577" y="1370" type="move" name="U"/>
    </contour>
  </outline>
</glyph>
<glyph name="LtnSmOCircumAcute.VN" format="1">
  <advance width="1030"/>
  <outline>
    <component base="LtnSmO"/>
    <component base="CombCircumAcute.VN" xOffset="1049"/>
    <contour>
      <point x="535" y="0" type="move" name="H"/>
    </contour>
    <contour>
      <point x="535" y="-100" type="move" name="L"/>
    </contour>
    <contour>
      <point x="575" y="0" type="move" name="O"/>
    </contour>
    <contour>
      <point x="1044" y="900" type="move" name="R"/>
    </contour>
  </outline>
</glyph>
<glyph name="LtnSmOHornDotBlw.sc" format="1">
  <advance width="1155"/>
  <outline>
    <component base="LtnSmOHorn.sc"/>
    <component base="CombDotBlw" xOffset="1093" yOffset="24"/>
    <contour>
      <point x="578" y="-576" type="move" name="L"/>
    </contour>
    <contour>
      <point x="578" y="1145" type="move" name="U"/>
    </contour>
  </outline>
</glyph>
<glyph name="LtnSmRAcute.sc" format="1">
  <advance width="1080"/>
  <outline>
    <component base="LtnSmR.sc"/>
    <component base="CombAcute" xOffset="1032" yOffset="95"/>
    <contour>
      <point x="258" y="7" type="move" name="H"/>
    </contour>
    <contour>
      <point x="489" y="-76" type="move" name="L"/>
    </contour>
    <contour>
      <point x="489" y="1505" type="move" name="U"/>
    </contour>
  </outline>
</glyph>
<glyph name="LtnSmSharpS.sc" format="1">
  <advance width="1832"/>
  <outline>
    <component base="LtnSmS.sc"/>
    <component base="LtnSmS.sc" xOffset="916"/>
    <contour>
      <point x="1367" y="7" type="move" name="H"/>
    </contour>
    <contour>
      <point x="1386" y="-76" type="move" name="L"/>
    </contour>
    <contour>
      <point x="1386" y="1145" type="move" name="U"/>
    </contour>
  </outline>
</glyph>
<glyph name="LtnSmTDiaer.LP" format="1">
  <advance width="705"/>
  <outline>
    <component base="LtnSmT"/>
    <component base="CombDiaer.LP" xOffset="863" yOffset="270"/>
    <contour>
      <point x="348" y="0" type="move" name="H"/>
    </contour>
    <contour>
      <point x="348" y="-100" type="move" name="L"/>
    </contour>
    <contour>
      <point x="500" y="900" type="move" name="R"/>
    </contour>
    <contour>
      <point x="348" y="1640" type="move" name="U"/>
    </contour>
  </outline>
</glyph>
<glyph name="LtnSmUHorn.sc" format="1">
  <advance width="1316"/>
  <outline>
    <contour>
      <point x="1183" y="991" type="curve"/>
      <point x="1189" y="998" type="line"/>
      <point x="1189" y="1041" type="line"/>
      <point x="789" y="1041" type="line"/>
      <point x="789" y="992" type="line"/>
      <point x="877" y="976"/>
      <point x="922" y="958"/>
      <point x="922" y="948" type="curve"/>
      <point x="922" y="401" type="line"/>
      <point x="922" y="242"/>
      <point x="827" y="84"/>
      <point x="656" y="84" type="curve" smooth="yes"/>
      <point x="451" y="84"/>
      <point x="340" y="206"/>
      <point x="340" y="409" type="curve"/>
      <point x="340" y="948" type="line"/>
      <point x="340" y="959"/>
      <point x="391" y="976"/>
      <point x="474" y="992" type="curve"/>
      <point x="474" y="1041" type="line"/>
      <point x="46" y="1041" type="line"/>
      <point x="46" y="992" type="line"/>
      <point x="134" y="976"/>
      <point x="180" y="958"/>
      <point x="180" y="948" type="curve"/>
      <point x="180" y="369" type="line"/>
      <point x="180" y="100"/>
      <point x="364" y="-24"/>
      <point x="620" y="-24" type="curve" smooth="yes"/>
      <point x="890" y="-24"/>
      <point x="1055" y="144"/>
      <point x="1055" y="434" type="curve"/>
      <point x="1055" y="948" type="line"/>
      <point x="1055" y="960"/>
      <point x="1104" y="976"/>
    </contour>
    <contour>
      <point x="1304" y="1077"/>
      <point x="1304" y="1140" type="curve" smooth="yes"/>
      <point x="1304" y="1176"/>
      <point x="1283" y="1208"/>
      <point x="1251" y="1233" type="curve"/>
      <point x="1072" y="1162" type="line"/>
      <point x="1110" y="1134"/>
      <point x="1133" y="1104"/>
      <point x="1133" y="1075" type="curve" smooth="yes"/>
      <point x="1133" y="1038"/>
      <point x="1073" y="974"/>
      <point x="926" y="925" type="curve"/>
      <point x="947" y="862" type="line"/>
      <point x="1230" y="955"/>
    </contour>
    <contour>
      <point x="636" y="-76" type="move" name="L"/>
    </contour>
    <contour>
      <point x="636" y="1145" type="move" name="U"/>
    </contour>
  </outline>
</glyph>
<glyph name="LtnSmYGrave.sc" format="1">
  <advance width="1144"/>
  <outline>
    <component base="LtnSmY.sc"/>
    <component base="CombGrave" xOffset="1001" yOffset="95"/>
    <contour>
      <point x="568" y="-76" type="move" name="L"/>
    </contour>
    <contour>
      <point x="568" y="1505" type="move" name="U"/>
    </contour>
  </outline>
</glyph>
<glyph name="LtnSmZDotAbv.LP" format="1">
  <advance width="869"/>
  <outline>
    <component base="LtnSmZ"/>
    <component base="CombDotAbv.LP" xOffset="995"/>
    <contour>
      <point x="452" y="0" type="move" name="H"/>
    </contour>
    <contour>
      <point x="452" y="-100" type="move" name="L"/>
    </contour>
    <contour>
      <point x="480" y="1370" type="move" name="U"/>
    </contour>
  </outline>
</glyph>
<glyph name="TnStaffRt5no" format="1">
  <advance width="192"/>
  <outline>
    <component base="TnLtrSpcFlatRight"/>
    <contour>
      <point x="-20" y="1498" type="move" name="_TL"/>
    </contour>
  </outline>
</glyph>
